<mxfile host="app.diagrams.net" modified="2023-02-15T12:34:37.711Z" agent="5.0 (Windows NT 10.0; Win64; x64) AppleWebKit/537.36 (KHTML, like Gecko) Chrome/110.0.0.0 Safari/537.36" etag="uIAiIaPtUj54qKNHKp2J" version="20.4.1" type="github">
  <diagram id="Il1cy1LPRWVQbqRV3Zj5" name="第 1 页">
    <mxGraphModel dx="1564" dy="812" grid="1" gridSize="10" guides="1" tooltips="1" connect="1" arrows="1" fold="1" page="1" pageScale="1" pageWidth="1169" pageHeight="1654" math="0" shadow="0">
      <root>
        <mxCell id="0" />
        <mxCell id="1" parent="0" />
        <mxCell id="QCnBixvZsdIyh98MdZr9-21" value="" style="rounded=0;whiteSpace=wrap;html=1;fontFamily=宋体;fontSource=https%3A%2F%2Ffonts.googleapis.com%2Fcss%3Ffamily%3DSongti;fontSize=14;labelBorderColor=none;textOpacity=0;dashed=1;" vertex="1" parent="1">
          <mxGeometry x="530" y="470" width="360" height="290" as="geometry" />
        </mxCell>
        <mxCell id="QCnBixvZsdIyh98MdZr9-20" value="" style="rounded=0;whiteSpace=wrap;html=1;fontFamily=宋体;fontSource=https%3A%2F%2Ffonts.googleapis.com%2Fcss%3Ffamily%3DSongti;fontSize=14;labelBorderColor=none;textOpacity=0;dashed=1;fontStyle=1" vertex="1" parent="1">
          <mxGeometry x="530" y="210" width="360" height="230" as="geometry" />
        </mxCell>
        <mxCell id="QCnBixvZsdIyh98MdZr9-7" style="edgeStyle=orthogonalEdgeStyle;rounded=0;orthogonalLoop=1;jettySize=auto;html=1;exitX=1;exitY=0.5;exitDx=0;exitDy=0;entryX=0;entryY=0.5;entryDx=0;entryDy=0;fontFamily=宋体;fontSource=https%3A%2F%2Ffonts.googleapis.com%2Fcss%3Ffamily%3DSongti;fontSize=14;" edge="1" parent="1" source="QCnBixvZsdIyh98MdZr9-1" target="QCnBixvZsdIyh98MdZr9-5">
          <mxGeometry relative="1" as="geometry" />
        </mxCell>
        <mxCell id="QCnBixvZsdIyh98MdZr9-8" style="edgeStyle=orthogonalEdgeStyle;rounded=0;orthogonalLoop=1;jettySize=auto;html=1;exitX=1;exitY=0.5;exitDx=0;exitDy=0;fontFamily=宋体;fontSource=https%3A%2F%2Ffonts.googleapis.com%2Fcss%3Ffamily%3DSongti;fontSize=14;entryX=0;entryY=0.5;entryDx=0;entryDy=0;" edge="1" parent="1" source="QCnBixvZsdIyh98MdZr9-1" target="QCnBixvZsdIyh98MdZr9-4">
          <mxGeometry relative="1" as="geometry">
            <mxPoint x="340" y="110" as="targetPoint" />
            <Array as="points">
              <mxPoint x="260" y="320" />
              <mxPoint x="260" y="110" />
            </Array>
          </mxGeometry>
        </mxCell>
        <mxCell id="QCnBixvZsdIyh98MdZr9-9" style="edgeStyle=orthogonalEdgeStyle;rounded=0;orthogonalLoop=1;jettySize=auto;html=1;fontFamily=宋体;fontSource=https%3A%2F%2Ffonts.googleapis.com%2Fcss%3Ffamily%3DSongti;fontSize=14;entryX=0;entryY=0.5;entryDx=0;entryDy=0;exitX=1;exitY=0.5;exitDx=0;exitDy=0;" edge="1" parent="1" source="QCnBixvZsdIyh98MdZr9-1" target="QCnBixvZsdIyh98MdZr9-3">
          <mxGeometry relative="1" as="geometry">
            <mxPoint x="260" y="420" as="targetPoint" />
            <Array as="points">
              <mxPoint x="260" y="320" />
              <mxPoint x="260" y="550" />
            </Array>
          </mxGeometry>
        </mxCell>
        <mxCell id="QCnBixvZsdIyh98MdZr9-1" value="&lt;font style=&quot;font-size: 20px;&quot; face=&quot;宋体&quot; data-font-src=&quot;https://fonts.googleapis.com/css?family=Songti&quot;&gt;用户&lt;/font&gt;" style="rounded=0;whiteSpace=wrap;html=1;fontFamily=Times New Roman;fontStyle=1;fontSize=14;" vertex="1" parent="1">
          <mxGeometry x="100" y="290" width="130" height="60" as="geometry" />
        </mxCell>
        <mxCell id="QCnBixvZsdIyh98MdZr9-3" value="&lt;font style=&quot;font-size: 18px;&quot; face=&quot;宋体&quot; data-font-src=&quot;https://fonts.googleapis.com/css?family=Songti&quot;&gt;可视化显示&lt;br&gt;与表达&lt;/font&gt;" style="rounded=0;whiteSpace=wrap;html=1;fontFamily=Times New Roman;fontStyle=1" vertex="1" parent="1">
          <mxGeometry x="300" y="520" width="120" height="60" as="geometry" />
        </mxCell>
        <mxCell id="QCnBixvZsdIyh98MdZr9-4" value="&lt;font style=&quot;font-size: 18px;&quot; data-font-src=&quot;https://fonts.googleapis.com/css?family=Songti&quot; face=&quot;宋体&quot;&gt;数据库&lt;/font&gt;" style="shape=datastore;whiteSpace=wrap;html=1;fontFamily=Comic Sans MS;fontSize=14;fontStyle=1" vertex="1" parent="1">
          <mxGeometry x="300" y="80" width="120" height="60" as="geometry" />
        </mxCell>
        <mxCell id="QCnBixvZsdIyh98MdZr9-5" value="&lt;font style=&quot;font-size: 18px;&quot; face=&quot;宋体&quot; data-font-src=&quot;https://fonts.googleapis.com/css?family=Songti&quot;&gt;堤防灾害&lt;br&gt;监测预警&lt;/font&gt;" style="rounded=0;whiteSpace=wrap;html=1;fontFamily=Times New Roman;fontStyle=1" vertex="1" parent="1">
          <mxGeometry x="300" y="290" width="120" height="60" as="geometry" />
        </mxCell>
        <mxCell id="QCnBixvZsdIyh98MdZr9-12" style="edgeStyle=orthogonalEdgeStyle;rounded=0;orthogonalLoop=1;jettySize=auto;html=1;exitX=0;exitY=0.5;exitDx=0;exitDy=0;entryX=1;entryY=0.5;entryDx=0;entryDy=0;fontFamily=宋体;fontSource=https%3A%2F%2Ffonts.googleapis.com%2Fcss%3Ffamily%3DSongti;fontSize=14;" edge="1" parent="1" source="QCnBixvZsdIyh98MdZr9-10" target="QCnBixvZsdIyh98MdZr9-4">
          <mxGeometry relative="1" as="geometry">
            <Array as="points">
              <mxPoint x="450" y="50" />
              <mxPoint x="450" y="110" />
            </Array>
          </mxGeometry>
        </mxCell>
        <mxCell id="QCnBixvZsdIyh98MdZr9-10" value="历史基础数据及监测数据" style="shape=document;whiteSpace=wrap;html=1;boundedLbl=1;fontFamily=宋体;fontSource=https%3A%2F%2Ffonts.googleapis.com%2Fcss%3Ffamily%3DSongti;fontSize=16;fontStyle=1" vertex="1" parent="1">
          <mxGeometry x="560" y="20" width="120" height="60" as="geometry" />
        </mxCell>
        <mxCell id="QCnBixvZsdIyh98MdZr9-13" style="edgeStyle=orthogonalEdgeStyle;rounded=0;orthogonalLoop=1;jettySize=auto;html=1;exitX=0;exitY=0.5;exitDx=0;exitDy=0;fontFamily=宋体;fontSource=https%3A%2F%2Ffonts.googleapis.com%2Fcss%3Ffamily%3DSongti;fontSize=14;entryX=1;entryY=0.5;entryDx=0;entryDy=0;" edge="1" parent="1" source="QCnBixvZsdIyh98MdZr9-11" target="QCnBixvZsdIyh98MdZr9-4">
          <mxGeometry relative="1" as="geometry">
            <mxPoint x="490" y="110" as="targetPoint" />
            <Array as="points">
              <mxPoint x="450" y="170" />
              <mxPoint x="450" y="110" />
            </Array>
          </mxGeometry>
        </mxCell>
        <mxCell id="QCnBixvZsdIyh98MdZr9-11" value="实时监测数据" style="shape=document;whiteSpace=wrap;html=1;boundedLbl=1;fontFamily=宋体;fontSource=https%3A%2F%2Ffonts.googleapis.com%2Fcss%3Ffamily%3DSongti;fontSize=16;fontStyle=1" vertex="1" parent="1">
          <mxGeometry x="560" y="140" width="120" height="60" as="geometry" />
        </mxCell>
        <mxCell id="QCnBixvZsdIyh98MdZr9-15" style="edgeStyle=orthogonalEdgeStyle;rounded=0;orthogonalLoop=1;jettySize=auto;html=1;exitX=0;exitY=0.5;exitDx=0;exitDy=0;fontFamily=宋体;fontSource=https%3A%2F%2Ffonts.googleapis.com%2Fcss%3Ffamily%3DSongti;fontSize=14;" edge="1" parent="1" source="QCnBixvZsdIyh98MdZr9-14" target="QCnBixvZsdIyh98MdZr9-11">
          <mxGeometry relative="1" as="geometry" />
        </mxCell>
        <mxCell id="QCnBixvZsdIyh98MdZr9-54" style="edgeStyle=orthogonalEdgeStyle;rounded=0;orthogonalLoop=1;jettySize=auto;html=1;exitX=0.5;exitY=1;exitDx=0;exitDy=0;entryX=1;entryY=0.5;entryDx=0;entryDy=0;fontFamily=宋体;fontSource=https%3A%2F%2Ffonts.googleapis.com%2Fcss%3Ffamily%3DSongti;fontSize=14;endArrow=classic;endFill=1;fontStyle=1" edge="1" parent="1" source="QCnBixvZsdIyh98MdZr9-14" target="QCnBixvZsdIyh98MdZr9-47">
          <mxGeometry relative="1" as="geometry" />
        </mxCell>
        <mxCell id="QCnBixvZsdIyh98MdZr9-14" value="应急补充&lt;br style=&quot;font-size: 16px;&quot;&gt;监测数据" style="rounded=0;whiteSpace=wrap;html=1;fontFamily=宋体;fontSource=https%3A%2F%2Ffonts.googleapis.com%2Fcss%3Ffamily%3DSongti;fontSize=16;fontStyle=1" vertex="1" parent="1">
          <mxGeometry x="880" y="140" width="90" height="60" as="geometry" />
        </mxCell>
        <mxCell id="QCnBixvZsdIyh98MdZr9-16" value="" style="shape=flexArrow;endArrow=classic;html=1;rounded=0;fontFamily=宋体;fontSource=https%3A%2F%2Ffonts.googleapis.com%2Fcss%3Ffamily%3DSongti;fontSize=14;" edge="1" parent="1">
          <mxGeometry width="50" height="50" relative="1" as="geometry">
            <mxPoint x="440" y="318.33" as="sourcePoint" />
            <mxPoint x="510" y="318.33" as="targetPoint" />
          </mxGeometry>
        </mxCell>
        <mxCell id="QCnBixvZsdIyh98MdZr9-19" value="" style="shape=flexArrow;endArrow=classic;html=1;rounded=0;fontFamily=宋体;fontSource=https%3A%2F%2Ffonts.googleapis.com%2Fcss%3Ffamily%3DSongti;fontSize=14;" edge="1" parent="1">
          <mxGeometry width="50" height="50" relative="1" as="geometry">
            <mxPoint x="440" y="549.9999999999999" as="sourcePoint" />
            <mxPoint x="510" y="549.9999999999999" as="targetPoint" />
          </mxGeometry>
        </mxCell>
        <mxCell id="QCnBixvZsdIyh98MdZr9-25" style="edgeStyle=orthogonalEdgeStyle;rounded=0;orthogonalLoop=1;jettySize=auto;html=1;exitX=0.5;exitY=1;exitDx=0;exitDy=0;entryX=0.5;entryY=0;entryDx=0;entryDy=0;fontFamily=宋体;fontSource=https%3A%2F%2Ffonts.googleapis.com%2Fcss%3Ffamily%3DSongti;fontSize=14;fontStyle=1" edge="1" parent="1" source="QCnBixvZsdIyh98MdZr9-22" target="QCnBixvZsdIyh98MdZr9-23">
          <mxGeometry relative="1" as="geometry" />
        </mxCell>
        <mxCell id="QCnBixvZsdIyh98MdZr9-22" value="预警模型库" style="rounded=0;whiteSpace=wrap;html=1;labelBorderColor=none;fontFamily=宋体;fontSource=https%3A%2F%2Ffonts.googleapis.com%2Fcss%3Ffamily%3DSongti;fontSize=16;fontStyle=1" vertex="1" parent="1">
          <mxGeometry x="565" y="240" width="110" height="30" as="geometry" />
        </mxCell>
        <mxCell id="QCnBixvZsdIyh98MdZr9-26" style="edgeStyle=orthogonalEdgeStyle;rounded=0;orthogonalLoop=1;jettySize=auto;html=1;exitX=0.5;exitY=1;exitDx=0;exitDy=0;entryX=0.5;entryY=0;entryDx=0;entryDy=0;fontFamily=宋体;fontSource=https%3A%2F%2Ffonts.googleapis.com%2Fcss%3Ffamily%3DSongti;fontSize=14;fontStyle=1" edge="1" parent="1" source="QCnBixvZsdIyh98MdZr9-23" target="QCnBixvZsdIyh98MdZr9-24">
          <mxGeometry relative="1" as="geometry" />
        </mxCell>
        <mxCell id="QCnBixvZsdIyh98MdZr9-23" value="初始预警分析" style="rounded=0;whiteSpace=wrap;html=1;labelBorderColor=none;fontFamily=宋体;fontSource=https%3A%2F%2Ffonts.googleapis.com%2Fcss%3Ffamily%3DSongti;fontSize=16;fontStyle=1" vertex="1" parent="1">
          <mxGeometry x="565" y="310" width="110" height="30" as="geometry" />
        </mxCell>
        <mxCell id="QCnBixvZsdIyh98MdZr9-50" style="edgeStyle=orthogonalEdgeStyle;rounded=0;orthogonalLoop=1;jettySize=auto;html=1;exitX=0.5;exitY=1;exitDx=0;exitDy=0;entryX=0.5;entryY=0;entryDx=0;entryDy=0;fontFamily=宋体;fontSource=https%3A%2F%2Ffonts.googleapis.com%2Fcss%3Ffamily%3DSongti;fontSize=14;endArrow=classic;endFill=1;fontStyle=1" edge="1" parent="1" source="QCnBixvZsdIyh98MdZr9-24" target="QCnBixvZsdIyh98MdZr9-42">
          <mxGeometry relative="1" as="geometry" />
        </mxCell>
        <mxCell id="QCnBixvZsdIyh98MdZr9-24" value="校正结果" style="rounded=0;whiteSpace=wrap;html=1;labelBorderColor=none;fontFamily=宋体;fontSource=https%3A%2F%2Ffonts.googleapis.com%2Fcss%3Ffamily%3DSongti;fontSize=16;fontStyle=1" vertex="1" parent="1">
          <mxGeometry x="565" y="380" width="110" height="30" as="geometry" />
        </mxCell>
        <mxCell id="QCnBixvZsdIyh98MdZr9-33" style="edgeStyle=orthogonalEdgeStyle;rounded=0;orthogonalLoop=1;jettySize=auto;html=1;entryX=1;entryY=0.5;entryDx=0;entryDy=0;fontFamily=宋体;fontSource=https%3A%2F%2Ffonts.googleapis.com%2Fcss%3Ffamily%3DSongti;fontSize=14;fontStyle=1" edge="1" parent="1" source="QCnBixvZsdIyh98MdZr9-27" target="QCnBixvZsdIyh98MdZr9-24">
          <mxGeometry relative="1" as="geometry">
            <Array as="points">
              <mxPoint x="810" y="395" />
            </Array>
          </mxGeometry>
        </mxCell>
        <mxCell id="QCnBixvZsdIyh98MdZr9-34" style="edgeStyle=orthogonalEdgeStyle;rounded=0;orthogonalLoop=1;jettySize=auto;html=1;exitX=0.5;exitY=1;exitDx=0;exitDy=0;fontFamily=宋体;fontSource=https%3A%2F%2Ffonts.googleapis.com%2Fcss%3Ffamily%3DSongti;fontSize=14;fontStyle=1" edge="1" parent="1" source="QCnBixvZsdIyh98MdZr9-27" target="QCnBixvZsdIyh98MdZr9-23">
          <mxGeometry relative="1" as="geometry" />
        </mxCell>
        <mxCell id="QCnBixvZsdIyh98MdZr9-35" style="edgeStyle=orthogonalEdgeStyle;rounded=0;orthogonalLoop=1;jettySize=auto;html=1;exitX=0;exitY=0.5;exitDx=0;exitDy=0;fontFamily=宋体;fontSource=https%3A%2F%2Ffonts.googleapis.com%2Fcss%3Ffamily%3DSongti;fontSize=14;endArrow=none;endFill=0;" edge="1" parent="1" source="QCnBixvZsdIyh98MdZr9-27">
          <mxGeometry relative="1" as="geometry">
            <mxPoint x="810.1724137931035" y="169.99999999999994" as="targetPoint" />
          </mxGeometry>
        </mxCell>
        <mxCell id="QCnBixvZsdIyh98MdZr9-48" style="edgeStyle=orthogonalEdgeStyle;rounded=0;orthogonalLoop=1;jettySize=auto;html=1;exitX=0.5;exitY=0;exitDx=0;exitDy=0;entryX=1;entryY=0.5;entryDx=0;entryDy=0;fontFamily=宋体;fontSource=https%3A%2F%2Ffonts.googleapis.com%2Fcss%3Ffamily%3DSongti;fontSize=14;endArrow=classic;endFill=1;fontStyle=1" edge="1" parent="1" source="QCnBixvZsdIyh98MdZr9-27" target="QCnBixvZsdIyh98MdZr9-43">
          <mxGeometry relative="1" as="geometry" />
        </mxCell>
        <mxCell id="QCnBixvZsdIyh98MdZr9-27" value="动态&lt;br style=&quot;font-size: 16px;&quot;&gt;数据&lt;br style=&quot;font-size: 16px;&quot;&gt;驱动&lt;br style=&quot;font-size: 16px;&quot;&gt;技术" style="rounded=0;whiteSpace=wrap;html=1;labelBorderColor=none;fontFamily=宋体;fontSource=https%3A%2F%2Ffonts.googleapis.com%2Fcss%3Ffamily%3DSongti;fontSize=16;direction=south;fontStyle=1" vertex="1" parent="1">
          <mxGeometry x="790" y="277.5" width="40" height="95" as="geometry" />
        </mxCell>
        <mxCell id="QCnBixvZsdIyh98MdZr9-36" value="结果检验" style="text;html=1;strokeColor=none;fillColor=none;align=center;verticalAlign=middle;whiteSpace=wrap;rounded=0;labelBorderColor=none;fontFamily=宋体;fontSource=https%3A%2F%2Ffonts.googleapis.com%2Fcss%3Ffamily%3DSongti;fontSize=16;fontStyle=1" vertex="1" parent="1">
          <mxGeometry x="710" y="400" width="70" height="30" as="geometry" />
        </mxCell>
        <mxCell id="QCnBixvZsdIyh98MdZr9-37" value="模型驱动" style="text;html=1;strokeColor=none;fillColor=none;align=center;verticalAlign=middle;whiteSpace=wrap;rounded=0;labelBorderColor=none;fontFamily=宋体;fontSource=https%3A%2F%2Ffonts.googleapis.com%2Fcss%3Ffamily%3DSongti;fontSize=16;fontStyle=1" vertex="1" parent="1">
          <mxGeometry x="705" y="330" width="80" height="30" as="geometry" />
        </mxCell>
        <mxCell id="QCnBixvZsdIyh98MdZr9-40" value="数&lt;br style=&quot;font-size: 16px;&quot;&gt;据&lt;br style=&quot;font-size: 16px;&quot;&gt;驱&lt;br style=&quot;font-size: 16px;&quot;&gt;动" style="text;html=1;strokeColor=none;fillColor=none;align=center;verticalAlign=middle;whiteSpace=wrap;rounded=0;labelBorderColor=none;fontFamily=宋体;fontSource=https%3A%2F%2Ffonts.googleapis.com%2Fcss%3Ffamily%3DSongti;fontSize=16;fontStyle=1" vertex="1" parent="1">
          <mxGeometry x="780" y="180" width="30" height="90" as="geometry" />
        </mxCell>
        <mxCell id="QCnBixvZsdIyh98MdZr9-49" style="edgeStyle=orthogonalEdgeStyle;rounded=0;orthogonalLoop=1;jettySize=auto;html=1;exitX=1;exitY=0.5;exitDx=0;exitDy=0;entryX=0;entryY=0.5;entryDx=0;entryDy=0;fontFamily=宋体;fontSource=https%3A%2F%2Ffonts.googleapis.com%2Fcss%3Ffamily%3DSongti;fontSize=14;endArrow=classic;endFill=1;fontStyle=1" edge="1" parent="1" source="QCnBixvZsdIyh98MdZr9-42" target="QCnBixvZsdIyh98MdZr9-46">
          <mxGeometry relative="1" as="geometry" />
        </mxCell>
        <mxCell id="QCnBixvZsdIyh98MdZr9-42" value="危险分析" style="rounded=0;whiteSpace=wrap;html=1;labelBorderColor=none;fontFamily=宋体;fontSource=https%3A%2F%2Ffonts.googleapis.com%2Fcss%3Ffamily%3DSongti;fontSize=16;fontStyle=1" vertex="1" parent="1">
          <mxGeometry x="565" y="490" width="110" height="30" as="geometry" />
        </mxCell>
        <mxCell id="QCnBixvZsdIyh98MdZr9-51" style="edgeStyle=orthogonalEdgeStyle;rounded=0;orthogonalLoop=1;jettySize=auto;html=1;exitX=0.5;exitY=1;exitDx=0;exitDy=0;entryX=0.5;entryY=0;entryDx=0;entryDy=0;fontFamily=宋体;fontSource=https%3A%2F%2Ffonts.googleapis.com%2Fcss%3Ffamily%3DSongti;fontSize=14;endArrow=classic;endFill=1;fontStyle=1" edge="1" parent="1" source="QCnBixvZsdIyh98MdZr9-43" target="QCnBixvZsdIyh98MdZr9-44">
          <mxGeometry relative="1" as="geometry" />
        </mxCell>
        <mxCell id="QCnBixvZsdIyh98MdZr9-43" value="决策会商" style="rounded=0;whiteSpace=wrap;html=1;labelBorderColor=none;fontFamily=宋体;fontSource=https%3A%2F%2Ffonts.googleapis.com%2Fcss%3Ffamily%3DSongti;fontSize=16;fontStyle=1" vertex="1" parent="1">
          <mxGeometry x="565" y="550" width="110" height="30" as="geometry" />
        </mxCell>
        <mxCell id="QCnBixvZsdIyh98MdZr9-52" style="edgeStyle=orthogonalEdgeStyle;rounded=0;orthogonalLoop=1;jettySize=auto;html=1;exitX=0.5;exitY=1;exitDx=0;exitDy=0;entryX=0.5;entryY=0;entryDx=0;entryDy=0;fontFamily=宋体;fontSource=https%3A%2F%2Ffonts.googleapis.com%2Fcss%3Ffamily%3DSongti;fontSize=14;endArrow=classic;endFill=1;fontStyle=1" edge="1" parent="1" source="QCnBixvZsdIyh98MdZr9-44" target="QCnBixvZsdIyh98MdZr9-45">
          <mxGeometry relative="1" as="geometry" />
        </mxCell>
        <mxCell id="QCnBixvZsdIyh98MdZr9-53" style="edgeStyle=orthogonalEdgeStyle;rounded=0;orthogonalLoop=1;jettySize=auto;html=1;exitX=1;exitY=0.5;exitDx=0;exitDy=0;entryX=0;entryY=0.5;entryDx=0;entryDy=0;fontFamily=宋体;fontSource=https%3A%2F%2Ffonts.googleapis.com%2Fcss%3Ffamily%3DSongti;fontSize=14;endArrow=classic;endFill=1;fontStyle=1" edge="1" parent="1" source="QCnBixvZsdIyh98MdZr9-44" target="QCnBixvZsdIyh98MdZr9-47">
          <mxGeometry relative="1" as="geometry" />
        </mxCell>
        <mxCell id="QCnBixvZsdIyh98MdZr9-44" value="综合&lt;br style=&quot;font-size: 16px;&quot;&gt;判断" style="rhombus;whiteSpace=wrap;html=1;labelBorderColor=none;fontFamily=宋体;fontSource=https%3A%2F%2Ffonts.googleapis.com%2Fcss%3Ffamily%3DSongti;fontSize=16;fontStyle=1" vertex="1" parent="1">
          <mxGeometry x="580" y="610" width="80" height="80" as="geometry" />
        </mxCell>
        <mxCell id="QCnBixvZsdIyh98MdZr9-45" value="预警发布" style="rounded=0;whiteSpace=wrap;html=1;labelBorderColor=none;fontFamily=宋体;fontSource=https%3A%2F%2Ffonts.googleapis.com%2Fcss%3Ffamily%3DSongti;fontSize=16;fontStyle=1" vertex="1" parent="1">
          <mxGeometry x="565" y="710" width="110" height="30" as="geometry" />
        </mxCell>
        <mxCell id="QCnBixvZsdIyh98MdZr9-46" value="动态展示" style="rounded=0;whiteSpace=wrap;html=1;labelBorderColor=none;fontFamily=宋体;fontSource=https%3A%2F%2Ffonts.googleapis.com%2Fcss%3Ffamily%3DSongti;fontSize=16;fontStyle=1" vertex="1" parent="1">
          <mxGeometry x="720" y="490" width="110" height="30" as="geometry" />
        </mxCell>
        <mxCell id="QCnBixvZsdIyh98MdZr9-47" value="加强监测" style="rounded=0;whiteSpace=wrap;html=1;labelBorderColor=none;fontFamily=宋体;fontSource=https%3A%2F%2Ffonts.googleapis.com%2Fcss%3Ffamily%3DSongti;fontSize=16;fontStyle=1" vertex="1" parent="1">
          <mxGeometry x="690" y="635" width="110" height="30" as="geometry" />
        </mxCell>
        <mxCell id="QCnBixvZsdIyh98MdZr9-55" value="&lt;font style=&quot;font-size: 16px;&quot;&gt;指&lt;br style=&quot;font-size: 16px;&quot;&gt;导&lt;br style=&quot;font-size: 16px;&quot;&gt;现&lt;br style=&quot;font-size: 16px;&quot;&gt;场&lt;br style=&quot;font-size: 16px;&quot;&gt;工&lt;br style=&quot;font-size: 16px;&quot;&gt;作&lt;/font&gt;" style="text;html=1;strokeColor=none;fillColor=none;align=center;verticalAlign=middle;whiteSpace=wrap;rounded=0;labelBorderColor=none;fontFamily=宋体;fontSource=https%3A%2F%2Ffonts.googleapis.com%2Fcss%3Ffamily%3DSongti;fontSize=16;fontStyle=1" vertex="1" parent="1">
          <mxGeometry x="920" y="360" width="60" height="130" as="geometry" />
        </mxCell>
        <mxCell id="QCnBixvZsdIyh98MdZr9-56" value="决&lt;br style=&quot;font-size: 16px;&quot;&gt;策&lt;br style=&quot;font-size: 16px;&quot;&gt;驱&lt;br style=&quot;font-size: 16px;&quot;&gt;动" style="text;html=1;strokeColor=none;fillColor=none;align=center;verticalAlign=middle;whiteSpace=wrap;rounded=0;labelBorderColor=none;fontFamily=宋体;fontSource=https%3A%2F%2Ffonts.googleapis.com%2Fcss%3Ffamily%3DSongti;fontSize=16;fontStyle=1" vertex="1" parent="1">
          <mxGeometry x="850" y="350" width="30" height="90" as="geometry" />
        </mxCell>
      </root>
    </mxGraphModel>
  </diagram>
</mxfile>
